<svg width="134" height="135" viewBox="0 0 134 135" fill="none" xmlns="http://www.w3.org/2000/svg">
<path d="M77.1686 15.0386C72.7422 7.37191 61.6764 7.3719 57.25 15.0386L16.7945 85.1095C12.3682 92.7761 17.9011 102.359 26.7538 102.359H107.665C116.517 102.359 122.05 92.7761 117.624 85.1095L77.1686 15.0386Z" fill="#FFCD00" stroke="#0060A7" stroke-width="3"/>
<path d="M63.7448 26.8994C65.2844 24.2328 69.1334 24.2327 70.673 26.8994L104.104 84.8042C105.644 87.4709 103.719 90.8042 100.64 90.8042H33.7776C30.6984 90.8042 28.7739 87.4709 30.3135 84.8042L63.7448 26.8994Z" fill="white"/>
<path d="M95.9967 69.1378L72.4051 28.2759C70.0957 24.2759 64.3222 24.2759 62.0128 28.2759L30.6395 82.616C28.3301 86.616 31.2168 91.616 35.8356 91.616H98.5822C103.201 91.616 106.088 86.616 103.778 82.616L102.177 79.8423" stroke="#0060A7" stroke-width="3" stroke-linecap="round"/>
<path d="M65.4047 67.9186L65.4216 67.9354L65.4392 67.9514C65.9345 68.4017 66.5407 68.6334 67.209 68.6334C67.8706 68.6334 68.4757 68.4051 68.9542 67.9352C69.4803 67.4477 69.7334 66.7916 69.807 66.0924L69.8071 66.0924L69.808 66.0826L71.3693 49.7098L71.3693 49.7098L71.3697 49.7054L71.4119 49.2412L71.416 49.1961V49.1507C71.416 48.0181 71.0011 47.0387 70.1402 46.3249C69.3386 45.6085 68.3331 45.2812 67.209 45.2812C66.0759 45.2812 65.0607 45.6132 64.2359 46.325C63.3961 47.0455 63.002 48.0269 63.002 49.1507V49.2006L63.0069 49.2502L63.0489 49.6698L63.0491 49.6722L64.61 66.0824L64.6099 66.0824L64.611 66.0924C64.6828 66.7749 64.9126 67.4264 65.4047 67.9186ZM64.2492 80.8747L64.2572 80.8831L64.2654 80.8913C65.0592 81.6851 66.0663 82.0704 67.209 82.0704C68.3517 82.0704 69.3588 81.6851 70.1526 80.8913L70.1608 80.8831L70.1688 80.8747C70.9472 80.0593 71.3317 79.0481 71.3317 77.9055C71.3317 76.7668 70.949 75.7627 70.1608 74.9702C69.3718 74.1479 68.3626 73.7407 67.209 73.7407C66.0554 73.7407 65.0462 74.1479 64.2572 74.9702C63.469 75.7627 63.0863 76.7668 63.0863 77.9055C63.0863 79.0481 63.4708 80.0593 64.2492 80.8747Z" fill="#0077C8" stroke="#005687" stroke-width="2"/>
</svg>
