<svg width="113" height="112" viewBox="0 0 113 112" fill="none" xmlns="http://www.w3.org/2000/svg">
<circle cx="56.7064" cy="56.308" r="47.5687" fill="#00A9E0" stroke="#0060A7" stroke-width="3"/>
<circle cx="56.7065" cy="56.3085" r="38.7851" fill="white"/>
<path d="M81.5345 25.7254C69.2431 15.7142 51.5641 13.7657 37.0193 22.1631C18.208 33.0238 11.7628 57.0777 22.6235 75.889C33.4842 94.7002 57.5381 101.145 76.3494 90.2848C93.6464 80.2983 100.488 59.1572 93.0341 41.194" stroke="#0060A7" stroke-width="3" stroke-linecap="round"/>
<path d="M86.7349 29.6094C86.7349 30.4378 86.0633 31.1094 85.2349 31.1094C84.4064 31.1094 83.7349 30.4378 83.7349 29.6094C83.7349 28.7809 84.4064 28.1094 85.2349 28.1094C86.0633 28.1094 86.7349 28.7809 86.7349 29.6094Z" fill="#0060A7"/>
<path d="M89.3145 32.6094C89.3145 33.4378 88.6429 34.1094 87.8145 34.1094C86.986 34.1094 86.3145 33.4378 86.3145 32.6094C86.3145 31.7809 86.986 31.1094 87.8145 31.1094C88.6429 31.1094 89.3145 31.7809 89.3145 32.6094Z" fill="#0060A7"/>
<path fill-rule="evenodd" clip-rule="evenodd" d="M39.4529 55.8719C41.0329 54.4786 43.4432 54.6299 44.8365 56.21L51.0145 63.216L68.4893 46.8702C70.0277 45.4311 72.4415 45.5117 73.8805 47.0502C75.3196 48.5886 75.239 51.0024 73.7006 52.4414L53.3573 71.4705C52.6043 72.1748 51.5983 72.5443 50.5684 72.4948C49.5386 72.4453 48.5726 71.981 47.8907 71.2077L39.1147 61.2555C37.7215 59.6755 37.8728 57.2651 39.4529 55.8719Z" fill="#00B8A3"/>
<path fill-rule="evenodd" clip-rule="evenodd" d="M37.9898 62.2476C36.0485 60.0463 36.2595 56.688 38.4608 54.7468C40.6622 52.8056 44.0204 53.0165 45.9616 55.2179L51.118 61.0654L67.4647 45.7748C69.6081 43.7698 72.9711 43.8821 74.9761 46.0255C76.981 48.169 76.8688 51.5319 74.7253 53.5369L54.382 72.566C53.3329 73.5473 51.9313 74.0621 50.4964 73.9931C49.0616 73.9241 47.7158 73.2772 46.7657 72.1998L37.9898 62.2476ZM40.445 56.997C39.4863 57.8423 39.3945 59.3048 40.2399 60.2635L49.0158 70.2156C49.4296 70.6848 50.0157 70.9665 50.6405 70.9966C51.2654 71.0266 51.8758 70.8024 52.3326 70.3751L72.676 51.346C73.6094 50.4729 73.6583 49.0083 72.7851 48.0749C71.912 47.1414 70.4475 47.0926 69.514 47.9657L50.9112 65.3667L43.7115 57.2021C42.8661 56.2434 41.4037 56.1516 40.445 56.997Z" fill="#005687"/>
</svg>
