<svg width="115" height="142" viewBox="0 0 115 142" fill="none" xmlns="http://www.w3.org/2000/svg">
<path d="M34.1534 105.185C36.4521 106.438 37.6108 109.304 36.4475 111.844C35.3122 114.324 32.299 115.533 29.7495 114.171C13.6441 105.566 2.66968 88.5823 2.66968 69.0262C2.66968 55.4375 7.97088 43.0825 16.6141 33.9238C18.7412 31.6698 21.071 29.609 23.5744 27.7705C31.2619 22.1249 40.588 18.5749 50.7049 17.9661C53.5882 17.7926 55.8233 20.1454 55.8233 22.8726C55.8233 25.6686 53.5718 27.7912 50.9598 27.9706C29.5682 29.4397 12.6697 47.2604 12.6697 69.0262C12.6697 84.6229 21.3452 98.2014 34.1534 105.185Z" fill="#00A9E0" stroke="#005687" stroke-width="4"/>
<path d="M48.1677 11.0233C48.1677 10.2535 49.001 9.77236 49.6677 10.1573L70.1925 22.0072C70.8591 22.3921 70.8591 23.3544 70.1925 23.7393L49.6677 35.5892C49.001 35.9741 48.1677 35.493 48.1677 34.7232L48.1677 11.0233Z" fill="#00A9E0" stroke="#005687" stroke-width="4"/>
<path fill-rule="evenodd" clip-rule="evenodd" d="M34.2727 68.6558C36.3764 66.8008 39.5855 67.0024 41.4405 69.106L49.666 78.4339L72.9319 56.671C74.9802 54.755 78.1939 54.8623 80.1098 56.9106C82.0258 58.9589 81.9185 62.1726 79.8702 64.0886L52.7851 89.4239C51.7826 90.3617 50.4432 90.8536 49.072 90.7877C47.7009 90.7218 46.4148 90.1036 45.5069 89.074L33.8225 75.8237C31.9675 73.72 32.1691 70.5109 34.2727 68.6558Z" fill="#00B8A3" stroke="#005687" stroke-width="4" stroke-linecap="round"/>
<path d="M80.6788 37.6834C78.3802 36.4301 77.2214 33.5644 78.3848 31.0239C79.5201 28.5444 82.5333 27.3348 85.0828 28.697C101.188 37.3021 112.163 54.2859 112.163 73.842C112.163 101.046 90.9287 123.288 64.1296 124.902C61.2481 125.075 59.009 122.725 59.009 119.996C59.009 117.2 61.2605 115.077 63.8724 114.898C85.2641 113.428 102.163 95.6078 102.163 73.842C102.163 58.2453 93.4871 44.6668 80.6788 37.6834Z" fill="#00A9E0" stroke="#005687" stroke-width="4"/>
<path d="M66.6646 131.845C66.6646 132.615 65.8312 133.096 65.1646 132.711L44.6398 120.861C43.9732 120.476 43.9732 119.514 44.6398 119.129L65.1646 107.279C65.8312 106.894 66.6646 107.375 66.6646 108.145L66.6646 131.845Z" fill="#00A9E0" stroke="#005687" stroke-width="4"/>
</svg>
