<svg width="25" height="25" viewBox="0 0 25 25" fill="none" xmlns="http://www.w3.org/2000/svg">
<path d="M19.5117 2.62354C20.2021 2.62354 20.7617 3.18318 20.7617 3.87354L20.7617 17.9423C20.7617 18.6326 20.2021 19.1923 19.5117 19.1923L5.31574 19.1923C5.17766 19.1923 5.06574 19.0803 5.06574 18.9423L5.06574 2.87353C5.06574 2.73546 5.17767 2.62353 5.31574 2.62353L19.5117 2.62354Z" fill="white" stroke="#4F4F4F" stroke-width="1.5"/>
<path d="M16.692 5.30266C16.8993 5.34726 17.0474 5.53054 17.0474 5.7426L17.0474 21.3564C17.0474 21.6431 16.783 21.8567 16.5027 21.7964L5.26311 19.3789C5.14793 19.3541 5.06568 19.2523 5.06568 19.1345L5.06568 3.11149C5.06568 2.95225 5.21257 2.8336 5.36825 2.86708L16.692 5.30266Z" fill="#BAECFE" stroke="#4F4F4F" stroke-width="1.5"/>
<path d="M14.0907 10.2734C14.622 10.2734 15.0527 10.7042 15.0527 11.2355L15.0527 13.4803C15.0527 14.0117 14.622 14.4424 14.0907 14.4424C13.5593 14.4424 13.1286 14.0117 13.1286 13.4803L13.1286 11.2355C13.1286 10.7042 13.5593 10.2734 14.0907 10.2734Z" fill="#E6E6E6" stroke="#4F4F4F"/>
</svg>
