<?xml version="1.0" standalone="no"?>
<!DOCTYPE svg PUBLIC "-//W3C//DTD SVG 20010904//EN"
 "http://www.w3.org/TR/2001/REC-SVG-20010904/DTD/svg10.dtd">
<svg version="1.0" xmlns="http://www.w3.org/2000/svg"
 width="77.000000pt" height="101.000000pt" viewBox="0 0 77.000000 101.000000"
 preserveAspectRatio="xMidYMid meet">

<g transform="translate(0.000000,101.000000) scale(0.100000,-0.100000)"
fill="#744eb5" stroke="none">
<path d="M650 964 c-8 -1 -40 -6 -71 -9 l-57 -6 5 -40 c6 -45 2 -47 -39 -18
-102 73 -249 62 -348 -27 -81 -74 -95 -108 -95 -239 0 -100 2 -115 28 -167 70
-142 243 -203 388 -136 33 15 67 40 84 62 15 20 32 36 37 36 19 0 4 -127 -18
-157 -52 -70 -174 -99 -294 -69 -36 9 -71 18 -78 19 -8 1 -22 -25 -37 -70
l-23 -73 52 -16 c168 -51 407 -14 504 79 90 86 98 168 53 559 -17 147 -31 269
-31 272 0 6 -33 6 -60 0z m-184 -193 c57 -26 87 -72 92 -140 3 -46 0 -62 -20
-90 -37 -55 -71 -74 -135 -78 -105 -7 -173 53 -173 154 0 83 33 132 107 159
52 18 81 17 129 -5z"/>
</g>
</svg>
