<svg width="25" height="25" viewBox="0 0 25 25" fill="none" xmlns="http://www.w3.org/2000/svg">
<path fill-rule="evenodd" clip-rule="evenodd" d="M18.458 7.98917C18.458 4.93574 15.9827 2.46045 12.9293 2.46045C9.87587 2.46045 7.40058 4.93574 7.40058 7.98917L7.40058 13.004C7.40058 16.0574 9.87587 18.5327 12.9293 18.5327C15.9827 18.5327 18.458 16.0574 18.458 13.0039L18.458 7.98917ZM15.6033 8.13789C15.6033 6.66107 14.4061 5.46387 12.9293 5.46387C11.4524 5.46387 10.2552 6.66107 10.2552 8.13789L10.2552 12.855C10.2552 14.3318 11.4524 15.529 12.9293 15.529C14.4061 15.529 15.6033 14.3318 15.6033 12.855L15.6033 8.13789Z" fill="#FBE122"/>
<path fill-rule="evenodd" clip-rule="evenodd" d="M16.958 13.0039L16.958 7.98917C16.958 5.76417 15.1543 3.96045 12.9293 3.96045C10.7043 3.96045 8.90058 5.76417 8.90058 7.98917L8.90058 13.004C8.90058 15.229 10.7043 17.0327 12.9293 17.0327C15.1543 17.0327 16.958 15.2289 16.958 13.0039ZM18.458 7.98917C18.458 4.93574 15.9827 2.46045 12.9293 2.46045C9.87587 2.46045 7.40058 4.93574 7.40058 7.98917L7.40058 13.004C7.40058 16.0574 9.87587 18.5327 12.9293 18.5327C15.9827 18.5327 18.458 16.0574 18.458 13.0039L18.458 7.98917Z" fill="#4F4F4F"/>
<path fill-rule="evenodd" clip-rule="evenodd" d="M14.6035 12.855L14.6035 8.13789C14.6035 7.21335 13.854 6.46387 12.9295 6.46387C12.005 6.46387 11.2555 7.21335 11.2555 8.13789L11.2555 12.855C11.2555 13.7795 12.005 14.529 12.9295 14.529C13.854 14.529 14.6035 13.7795 14.6035 12.855ZM15.6035 8.13789C15.6035 6.66107 14.4063 5.46387 12.9295 5.46387C11.4527 5.46387 10.2555 6.66107 10.2555 8.13789L10.2555 12.855C10.2555 14.3318 11.4527 15.529 12.9295 15.529C14.4063 15.529 15.6035 14.3318 15.6035 12.855L15.6035 8.13789Z" fill="#4F4F4F"/>
<path d="M19.5117 10.3535C20.2021 10.3535 20.7617 10.9132 20.7617 11.6035L20.7617 20.1565C20.7617 20.7036 20.4091 21.1775 19.9047 21.3262C17.4505 22.0498 15.3961 22.4474 13.2535 22.4698C11.1106 22.4921 8.84028 22.1393 5.95889 21.3164C5.45279 21.1719 5.09708 20.698 5.09708 20.1477L5.09708 11.6035C5.09708 10.9132 5.65672 10.3535 6.34708 10.3535L19.5117 10.3535Z" fill="#52CAF5" stroke="#4F4F4F" stroke-width="1.5"/>
<circle cx="12.9295" cy="15.0711" r="1.70293" fill="#FBE122" stroke="#4F4F4F"/>
<path d="M11.9357 17.1277C11.9884 16.9014 12.1902 16.7413 12.4226 16.7413L13.4742 16.7412C13.7095 16.7412 13.9129 16.9052 13.9629 17.135L14.3492 18.9128C14.417 19.2244 14.1796 19.519 13.8607 19.519H12.008C11.6859 19.519 11.4479 19.219 11.521 18.9054L11.9357 17.1277Z" fill="#4F4F4F"/>
</svg>
