<svg width="25" height="25" viewBox="0 0 25 25" fill="none" xmlns="http://www.w3.org/2000/svg">
<path d="M4.05496 11.5973C3.81167 11.4548 3.78829 11.112 4.00996 10.9377L12.2622 4.45044C12.777 4.04571 13.5036 4.05196 14.0114 4.46546L21.9412 10.9227C22.1583 11.0995 22.1312 11.439 21.8888 11.5791L13.0967 16.6605C12.9721 16.7325 12.8185 16.732 12.6943 16.6593L4.05496 11.5973Z" fill="#E6E6E6" stroke="#4F4F4F" stroke-width="1.2"/>
<rect x="6.43408" y="5.9209" width="12.9827" height="13.9766" rx="1.5" fill="white" stroke="#4F4F4F"/>
<path d="M13.0014 14.2251C12.3537 14.2251 11.7906 14.0945 11.312 13.8335C10.8335 13.5773 10.4637 13.2172 10.2026 12.7532C9.94646 12.2891 9.81836 11.755 9.81836 11.1507C9.81836 10.4788 9.95371 9.89879 10.2244 9.41057C10.4999 8.92235 10.8794 8.55015 11.3628 8.29396C11.8461 8.03776 12.3948 7.90967 13.0087 7.90967C13.6419 7.90967 14.1857 8.0281 14.6401 8.26495C15.0945 8.50181 15.4401 8.82568 15.677 9.23655C15.9138 9.64259 16.0322 10.0994 16.0322 10.6069C16.0322 11.0275 15.967 11.39 15.8365 11.6946C15.7108 11.9942 15.5344 12.2239 15.3072 12.3834C15.08 12.5381 14.8214 12.6154 14.5313 12.6154C14.2751 12.6154 14.0673 12.5598 13.9078 12.4486C13.7483 12.3375 13.6492 12.19 13.6105 12.0063H13.596C13.4655 12.1949 13.318 12.3447 13.1537 12.4559C12.9942 12.5622 12.7912 12.6154 12.5446 12.6154C12.1869 12.6154 11.9066 12.497 11.7036 12.2601C11.5054 12.0184 11.4063 11.6994 11.4063 11.303C11.4063 10.9598 11.4715 10.648 11.602 10.3677C11.7326 10.0825 11.9114 9.8577 12.1386 9.69335C12.3706 9.529 12.6341 9.44682 12.9289 9.44682C13.1271 9.44682 13.3011 9.48791 13.451 9.57009C13.6008 9.65226 13.7072 9.76827 13.77 9.91812H13.7918L13.8063 9.82386C13.8208 9.72719 13.8619 9.65468 13.9295 9.60634C14.002 9.55317 14.0939 9.52658 14.2051 9.52658C14.3162 9.52658 14.4032 9.558 14.4661 9.62084C14.5289 9.68368 14.5603 9.77069 14.5603 9.88187C14.5603 9.93021 14.5579 9.96646 14.5531 9.99063L14.3356 11.2233C14.3114 11.3683 14.2993 11.4819 14.2993 11.564C14.2993 11.7042 14.3283 11.8106 14.3863 11.8831C14.4443 11.9556 14.5386 11.9918 14.6691 11.9918C14.7658 11.9918 14.8625 11.9459 14.9591 11.8541C15.0558 11.7622 15.1356 11.6124 15.1984 11.4045C15.2661 11.1967 15.2999 10.9308 15.2999 10.6069C15.2999 10.2009 15.2129 9.84561 15.0389 9.54108C14.8649 9.23655 14.6063 8.9997 14.2631 8.83051C13.9199 8.66133 13.5017 8.57674 13.0087 8.57674C12.5446 8.57674 12.1313 8.67825 11.7688 8.88127C11.4063 9.07945 11.1211 9.37432 10.9132 9.76586C10.7054 10.1526 10.6014 10.6142 10.6014 11.1507C10.6014 11.6341 10.6957 12.0571 10.8842 12.4196C11.0776 12.7822 11.3531 13.0625 11.7108 13.2607C12.0733 13.4589 12.5035 13.558 13.0014 13.558C13.3156 13.558 13.5863 13.5242 13.8135 13.4565C14.0455 13.3936 14.2703 13.2921 14.4878 13.1519C14.5652 13.1036 14.6377 13.0794 14.7054 13.0794C14.802 13.0794 14.8818 13.1133 14.9446 13.181C15.0123 13.2486 15.0461 13.3284 15.0461 13.4202C15.0461 13.5411 14.9881 13.6426 14.8721 13.7248C14.6788 13.8649 14.4177 13.9834 14.089 14.08C13.7603 14.1767 13.3978 14.2251 13.0014 14.2251ZM12.7187 11.9918C12.912 11.9918 13.0764 11.9338 13.2117 11.8178C13.3519 11.697 13.4558 11.5423 13.5235 11.3538C13.596 11.1604 13.6322 10.9574 13.6322 10.7447C13.6322 10.5223 13.5815 10.3556 13.48 10.2444C13.3833 10.1332 13.2455 10.0776 13.0667 10.0776C12.8878 10.0776 12.7332 10.1381 12.6026 10.2589C12.4721 10.3798 12.373 10.5344 12.3054 10.723C12.2377 10.9115 12.2039 11.1048 12.2039 11.303C12.2039 11.5109 12.2498 11.6776 12.3416 11.8033C12.4335 11.929 12.5591 11.9918 12.7187 11.9918Z" fill="#4F4F4F"/>
<path d="M3.47256 11.3579C3.47256 11.0258 3.85395 10.8384 4.11692 11.0413L12.2533 17.3194C12.6492 17.6249 13.2014 17.6249 13.5973 17.3194L21.7337 11.0413C21.9967 10.8384 22.3781 11.0258 22.3781 11.3579V22.9563C22.3781 23.1772 22.199 23.3563 21.9781 23.3563H3.87256C3.65165 23.3563 3.47256 23.1772 3.47256 22.9563V11.3579Z" fill="#BAECFE" stroke="#4F4F4F" stroke-width="1.2"/>
<path d="M10.5254 16.2583L3.52881 23.2548" stroke="#4F4F4F"/>
<path d="M14.8736 16.2583L21.8701 23.2548" stroke="#4F4F4F"/>
</svg>
