<svg width="37" height="37" viewBox="0 0 37 37" fill="none" xmlns="http://www.w3.org/2000/svg">
<circle cx="18.7515" cy="18.4883" r="18" fill="#F6F6F6"/>
<path d="M25.4942 18.3764V9.7233H12.0084V18.3762L17.6312 21.3588L18.5364 20.7588L18.5364 20.7588L18.5641 20.8004L25.4942 18.3764ZM25.4942 18.3764L19.8717 21.3589M25.4942 18.3764L19.8717 21.3589M19.8717 21.3589L18.9664 20.7588L18.9664 20.7588L18.9387 20.8004L19.8717 21.3589ZM28.8644 16.819L28.8643 16.819L26.2724 15.1006V9.33421C26.2724 9.11932 26.0982 8.94512 25.8833 8.94512H11.6194C11.4045 8.94512 11.2303 9.11932 11.2303 9.33421V15.101L8.63875 16.8189L8.63872 16.819C8.53395 16.8885 8.46465 17.0078 8.46465 17.1432V27.6442C8.46465 27.8591 8.63886 28.0333 8.85374 28.0333H28.6494C28.8643 28.0333 29.0385 27.8591 29.0385 27.6442V17.1432C29.0385 17.0077 28.9691 16.8886 28.8644 16.819ZM11.2303 17.5323V17.9634L10.4176 17.5323H11.2303ZM9.24283 26.9192V17.7901L16.8931 21.8482L9.24283 26.9192ZM10.1446 27.2551L18.7514 21.5499L27.3583 27.2551H10.1446ZM28.2602 26.9194L20.6099 21.8482L28.2602 17.7901V26.9194ZM26.2724 17.5323H27.0855L26.2724 17.9636V17.5323ZM26.2724 16.0342L27.3583 16.7541H26.2724V16.0342ZM11.2303 16.7541H10.1449L11.2303 16.0346V16.7541Z" fill="#989898" stroke="#989898" stroke-width="0.1"/>
<path fill-rule="evenodd" clip-rule="evenodd" d="M18.7515 18.0123H21.4531C21.6956 18.0123 21.8922 17.8157 21.8922 17.5732C21.8922 17.3308 21.6956 17.1342 21.4531 17.1342H18.7515C17.5041 17.1342 16.489 16.1191 16.489 14.8716V14.7716C16.489 13.5241 17.5041 12.5091 18.7515 12.5091C19.999 12.5091 21.014 13.5241 21.014 14.7716V15.0218C21.014 15.2485 20.8294 15.4332 20.6026 15.4332C20.3758 15.4332 20.1912 15.2486 20.1912 15.0218V14.5465C20.1912 13.6836 19.4893 12.9817 18.6264 12.9817C17.7635 12.9817 17.0617 13.6835 17.0617 14.5465C17.0617 15.4094 17.7635 16.1112 18.6264 16.1112C18.9807 16.1112 19.3078 15.9926 19.5702 15.7934C19.8053 16.1074 20.1804 16.3113 20.6026 16.3113C21.3138 16.3113 21.8922 15.7329 21.8922 15.0217V14.7715C21.8922 13.0397 20.4834 11.6309 18.7515 11.6309C17.0197 11.6309 15.6108 13.0397 15.6108 14.7715V14.8716C15.6108 16.6035 17.0197 18.0123 18.7515 18.0123ZM18.6264 16.0112C18.9596 16.0112 19.267 15.8992 19.5133 15.711C19.54 15.6906 19.566 15.6693 19.5912 15.6472C19.5912 15.6472 19.5912 15.6472 19.5912 15.6471C19.3333 15.8735 18.9957 16.0112 18.6264 16.0112C18.2242 16.0112 17.8593 15.8482 17.5943 15.5848C17.8593 15.8482 18.2242 16.0112 18.6264 16.0112ZM19.8495 15.9418C20.0547 16.1101 20.317 16.2113 20.6026 16.2113C21.2585 16.2113 21.7922 15.6777 21.7922 15.0217V14.7715C21.7922 13.9856 21.4925 13.2684 21.0014 12.7281C21.4925 13.2684 21.7922 13.9856 21.7922 14.7715V15.0217C21.7922 15.6777 21.2585 16.2113 20.6026 16.2113C20.317 16.2113 20.0547 16.1101 19.8495 15.9418ZM17.0843 16.5439C16.655 16.1159 16.389 15.5242 16.389 14.8716V14.7716C16.389 13.4689 17.4488 12.4091 18.7515 12.4091C19.3978 12.4091 19.9843 12.6699 20.4112 13.0918C19.9843 12.6699 19.3978 12.4091 18.7515 12.4091C17.4488 12.4091 16.389 13.4689 16.389 14.7716V14.8716C16.389 15.5243 16.655 16.1159 17.0843 16.5439ZM20.4996 13.1839C20.8812 13.6037 21.114 14.1609 21.114 14.7716V15.0217C21.114 15.3037 20.8846 15.5332 20.6026 15.5332C20.3205 15.5332 20.0911 15.3038 20.0911 15.0217V14.5465C20.0911 14.1442 19.9282 13.7793 19.6648 13.5143C19.9282 13.7793 20.0912 14.1442 20.0912 14.5465V15.0218C20.0912 15.3038 20.3206 15.5332 20.6026 15.5332C20.8846 15.5332 21.114 15.3037 21.114 15.0218V14.7716C21.114 14.161 20.8812 13.6037 20.4996 13.1839ZM18.6264 15.233C18.2479 15.233 17.9399 14.925 17.9399 14.5465C17.9399 14.168 18.248 13.8599 18.6264 13.8599C19.0049 13.8599 19.313 14.168 19.313 14.5465C19.313 14.925 19.0049 15.233 18.6264 15.233ZM18.0722 15.1041C17.9288 14.9615 17.8399 14.7642 17.8399 14.5465C17.8399 14.1128 18.1928 13.7599 18.6264 13.7599C18.8441 13.7599 19.0414 13.8488 19.184 13.9922C19.0414 13.8488 18.8441 13.7599 18.6264 13.7599C18.1927 13.7599 17.8398 14.1127 17.8398 14.5465C17.8398 14.7642 17.9288 14.9615 18.0722 15.1041Z" fill="#989898"/>
</svg>
