<svg width="170" height="131" viewBox="0 0 170 131" fill="none" xmlns="http://www.w3.org/2000/svg">
<path fill-rule="evenodd" clip-rule="evenodd" d="M128.95 23.2482C128.778 22.2128 127.79 21.5444 126.747 21.6603C124.948 21.86 123.121 21.9626 121.269 21.9626C107.79 21.9626 95.5805 16.5271 86.7129 7.72835C85.8841 6.90598 84.5335 6.90598 83.7047 7.72835C74.837 16.5271 62.6275 21.9626 49.1484 21.9626C47.4401 21.9626 45.7522 21.8753 44.0889 21.7049C43.05 21.5984 42.072 22.2679 41.9021 23.2983C41.6 25.1306 41.4429 27.0118 41.4429 28.9296V52.8343C41.4429 79.2818 58.3951 102.751 83.5023 111.063C84.7541 111.478 86.1061 111.478 87.3579 111.063C112.465 102.751 129.417 79.2818 129.417 52.8343V28.9296C129.417 26.9943 129.257 25.0963 128.95 23.2482Z" fill="#005687"/>
<path fill-rule="evenodd" clip-rule="evenodd" d="M123.272 28.5215C123.108 27.4847 122.119 26.817 121.076 26.9269C119.592 27.0831 118.086 27.1632 116.561 27.1632C104.955 27.1632 94.4325 22.524 86.7469 14.9987C85.9127 14.1819 84.5627 14.1819 83.7284 14.9987C76.0429 22.5239 65.5204 27.1632 53.9144 27.1632C52.5133 27.1632 51.128 27.0956 49.7615 26.9634C48.722 26.8629 47.743 27.5316 47.5815 28.5634C47.3443 30.0791 47.2212 31.6327 47.2212 33.215V53.9794C47.2212 76.9525 61.9464 97.3388 83.7554 104.559C84.8427 104.919 86.0172 104.919 87.1045 104.559C108.914 97.3388 123.639 76.9525 123.639 53.9794V33.215C123.639 31.6181 123.513 30.0505 123.272 28.5215Z" fill="#0077C8"/>
<path fill-rule="evenodd" clip-rule="evenodd" d="M85.3661 14.8775C85.3271 14.8358 84.8484 14.8971 84.4776 14.9517C84.1902 14.9941 83.9281 15.0981 83.6859 15.2587C81.1227 16.959 65.2678 27.1629 53.9144 27.1629C52.5133 27.1629 51.128 27.0953 49.7615 26.9632C48.722 26.8626 47.743 27.5314 47.5815 28.5631C47.3443 30.0789 47.2212 31.6324 47.2212 33.2147V53.9791C47.2212 76.9522 61.9464 97.3385 83.7554 104.559C84.6485 104.854 85.4299 104.12 85.4299 103.18C85.4296 90.9585 85.4252 14.9408 85.3661 14.8775Z" fill="#0C8CE2"/>
<ellipse cx="85.4944" cy="122.876" rx="28.0979" ry="3.50186" fill="#CFCFCF"/>
<path d="M85.4277 37.9722C91.3683 37.9722 96.1841 42.7879 96.1841 48.7285L96.1841 58.485C96.1841 64.4256 91.3683 69.2414 85.4277 69.2414C79.4872 69.2414 74.6714 64.4256 74.6714 58.485L74.6714 48.7285C74.6714 42.788 79.4872 37.9722 85.4277 37.9722Z" fill="#CFCFCF"/>
<path fill-rule="evenodd" clip-rule="evenodd" d="M85.4946 37.9724C85.4724 37.9722 85.4502 37.9722 85.428 37.9722C79.4874 37.9722 74.6717 42.788 74.6717 48.7285L74.6717 58.485C74.6717 64.4256 79.4874 69.2414 85.428 69.2414C85.4502 69.2414 85.4724 69.2413 85.4946 69.2411L85.4946 37.9724Z" fill="#E6E6E6"/>
<path d="M85.4279 43.8154C88.3012 43.8154 90.6304 46.1446 90.6304 49.0179L90.6304 58.1952C90.6304 61.0684 88.3012 63.3976 85.4279 63.3976C82.5547 63.3976 80.2255 61.0684 80.2255 58.1952L80.2255 49.0179C80.2255 46.1446 82.5547 43.8154 85.4279 43.8154Z" fill="#0077C8"/>
<path d="M100.125 51.8696C101.23 51.8696 102.125 52.7651 102.125 53.8696L102.125 73.7796C102.125 74.6486 101.562 75.4207 100.732 75.6772C89.9362 79.0125 82.8611 79.4973 70.1339 75.6701C69.2977 75.4186 68.7305 74.644 68.7305 73.7709L68.7305 53.8696C68.7305 52.7651 69.6259 51.8696 70.7305 51.8696L100.125 51.8696Z" fill="#FBE122"/>
<circle cx="85.4275" cy="62.5071" r="4.28589" fill="#D7AF0C"/>
<path d="M83.5795 66.143C83.6323 65.9166 83.834 65.7565 84.0664 65.7565L86.8687 65.7564C87.104 65.7564 87.3074 65.9203 87.3573 66.1502L88.3146 70.5545C88.3823 70.8661 88.1449 71.1606 87.826 71.1606H83.0392C82.7172 71.1606 82.4791 70.8607 82.5523 70.5471L83.5795 66.143Z" fill="#D7AF0C"/>
</svg>
