<svg width="25" height="25" viewBox="0 0 25 25" fill="none" xmlns="http://www.w3.org/2000/svg">
<rect x="5.10596" y="1.82764" width="15.7181" height="22.1379" rx="4" fill="#4F4F4F"/>
<path fill-rule="evenodd" clip-rule="evenodd" d="M9.72266 3.38679C9.72266 3.15187 9.53221 2.96143 9.29729 2.96143C7.69198 2.96143 6.39062 4.3167 6.39062 5.98853V19.6415C6.39062 21.3134 7.69198 22.6686 9.29729 22.6686H16.6327C18.238 22.6686 19.5394 21.3134 19.5394 19.6415V5.98853C19.5394 4.31671 18.238 2.96143 16.6327 2.96143C16.3978 2.96143 16.2073 3.15188 16.2073 3.38681V3.90116C16.2073 4.73708 15.5567 5.41472 14.754 5.41472H11.176C10.3733 5.41472 9.72266 4.73707 9.72266 3.90116V3.38679Z" fill="#BAECFE"/>
<circle cx="8.50592" cy="5.17291" r="0.736389" fill="#4F4F4F"/>
<rect x="8.67529" y="6.85449" width="8.57898" height="8.47674" rx="1" fill="white"/>
</svg>
