<svg width="170" height="131" viewBox="0 0 170 131" fill="none" xmlns="http://www.w3.org/2000/svg">
<path d="M41.4446 56.9382C39.0117 55.5127 38.7779 52.0849 40.9947 50.3423L83.5525 16.8866C85.0234 15.7302 87.0995 15.7481 88.5503 16.9295L129.54 50.3078C131.712 52.0762 131.441 55.4713 129.016 56.8727L86.8894 81.2196C85.6436 81.9396 84.1071 81.935 82.8657 81.2076L41.4446 56.9382Z" fill="#52CAF5"/>
<path fill-rule="evenodd" clip-rule="evenodd" d="M85.209 81.7435C85.7915 81.6966 86.3662 81.5221 86.8895 81.2196L129.016 56.8727C131.441 55.4714 131.712 52.0762 129.541 50.3078L88.5505 16.9295C87.5914 16.1485 86.3591 15.876 85.209 16.1151V81.7435Z" fill="#3FB6E1"/>
<path d="M52.4487 28.2373C52.4487 27.1327 53.3442 26.2373 54.4487 26.2373H115.601C116.705 26.2373 117.601 27.1327 117.601 28.2373V94.0205C117.601 95.1251 116.705 96.0205 115.601 96.0205H54.4487C53.3442 96.0205 52.4487 95.1251 52.4487 94.0205V28.2373Z" fill="#F6F6F6"/>
<path fill-rule="evenodd" clip-rule="evenodd" d="M85.2173 96.0205H115.601C116.706 96.0205 117.601 95.1251 117.601 94.0205V28.2373C117.601 27.1327 116.706 26.2373 115.601 26.2373H85.2173V96.0205Z" fill="#E8ECEF"/>
<path d="M85.3793 67.258C82.3612 67.258 79.7373 66.6499 77.5075 65.4336C75.2777 64.2399 73.5547 62.5619 72.3384 60.3997C71.1447 58.2375 70.5479 55.7487 70.5479 52.9333C70.5479 49.8026 71.1785 47.0998 72.4398 44.825C73.7236 42.5501 75.4917 40.8159 77.744 39.6221C79.9963 38.4284 82.5527 37.8315 85.4131 37.8315C88.3636 37.8315 90.8975 38.3834 93.0147 39.487C95.1318 40.5906 96.7422 42.0997 97.8459 44.0141C98.9495 45.9061 99.5013 48.0345 99.5013 50.3994C99.5013 52.359 99.1973 54.0482 98.5891 55.4671C98.0035 56.8636 97.1814 57.9334 96.1228 58.6767C95.0643 59.3974 93.8593 59.7578 92.5079 59.7578C91.3142 59.7578 90.3457 59.4988 89.6024 58.9807C88.8591 58.4627 88.3974 57.7758 88.2172 56.9199H88.1497C87.5415 57.7983 86.8546 58.4965 86.0888 59.0145C85.3455 59.51 84.3996 59.7578 83.2509 59.7578C81.5842 59.7578 80.2778 59.206 79.3319 58.1023C78.4084 56.9762 77.9467 55.4897 77.9467 53.6428C77.9467 52.0436 78.2508 50.5909 78.8589 49.2845C79.467 47.9557 80.3004 46.9084 81.3589 46.1426C82.4401 45.3768 83.6676 44.9939 85.0415 44.9939C85.9649 44.9939 86.7758 45.1853 87.474 45.5682C88.1722 45.9511 88.6677 46.4917 88.9605 47.1899H89.0619L89.1294 46.7507C89.197 46.3002 89.3884 45.9624 89.7038 45.7372C90.0416 45.4894 90.4695 45.3655 90.9876 45.3655C91.5056 45.3655 91.911 45.5119 92.2038 45.8047C92.4966 46.0975 92.643 46.5029 92.643 47.021C92.643 47.2462 92.6318 47.4151 92.6092 47.5277L91.5957 53.2711C91.4831 53.9468 91.4268 54.4761 91.4268 54.859C91.4268 55.5122 91.5619 56.0077 91.8322 56.3455C92.1025 56.6834 92.5417 56.8523 93.1498 56.8523C93.6003 56.8523 94.0507 56.6383 94.5012 56.2104C94.9516 55.7825 95.3233 55.0842 95.6161 54.1158C95.9314 53.1473 96.0891 51.9085 96.0891 50.3994C96.0891 48.5075 95.6836 46.8521 94.8728 45.4331C94.062 44.0141 92.857 42.9105 91.2579 42.1222C89.6587 41.3339 87.7105 40.9397 85.4131 40.9397C83.2509 40.9397 81.3252 41.4127 79.6359 42.3587C77.9467 43.2821 76.6178 44.656 75.6493 46.4804C74.6808 48.2823 74.1966 50.4332 74.1966 52.9333C74.1966 55.1856 74.6358 57.1564 75.5142 58.8456C76.4151 60.5348 77.6989 61.8412 79.3657 62.7646C81.0549 63.6881 83.0594 64.1498 85.3793 64.1498C86.8433 64.1498 88.1046 63.9921 89.1632 63.6768C90.2443 63.384 91.2916 62.911 92.3052 62.2579C92.6655 62.0326 93.0034 61.92 93.3187 61.92C93.7692 61.92 94.1408 62.0777 94.4336 62.393C94.7489 62.7083 94.9066 63.08 94.9066 63.5079C94.9066 64.071 94.6363 64.544 94.0958 64.9269C93.1948 65.58 91.9786 66.1318 90.447 66.5823C88.9154 67.0328 87.2262 67.258 85.3793 67.258ZM84.0617 56.8523C84.9626 56.8523 85.7284 56.582 86.3591 56.0415C87.0122 55.4784 87.4965 54.7577 87.8118 53.8793C88.1497 52.9783 88.3186 52.0324 88.3186 51.0413C88.3186 50.0053 88.0821 49.2282 87.6091 48.7102C87.1586 48.1922 86.5167 47.9332 85.6834 47.9332C84.85 47.9332 84.1293 48.2147 83.5212 48.7778C82.913 49.3409 82.4513 50.0616 82.136 50.94C81.8207 51.8184 81.663 52.7193 81.663 53.6428C81.663 54.6113 81.877 55.3883 82.3049 55.9739C82.7329 56.5595 83.3185 56.8523 84.0617 56.8523Z" fill="#FF5260"/>
<path d="M38.1841 52.5582C38.1841 49.2367 41.998 47.3622 44.6277 49.3913L84.7192 80.3265C84.8992 80.4653 85.1502 80.4653 85.3301 80.3265L125.422 49.3913C128.051 47.3622 131.865 49.2367 131.865 52.5582V108.602C131.865 110.811 130.074 112.602 127.865 112.602H42.1841C39.9749 112.602 38.1841 110.811 38.1841 108.602V52.5582Z" fill="#FBE122"/>
<path fill-rule="evenodd" clip-rule="evenodd" d="M85.209 112.602H127.866C130.075 112.602 131.866 110.811 131.866 108.602V52.5582C131.866 49.2367 128.052 47.3622 125.422 49.3913L85.3304 80.3265C85.2926 80.3556 85.2517 80.3787 85.209 80.3956V112.602Z" fill="#F1D719"/>
<path fill-rule="evenodd" clip-rule="evenodd" d="M74.8864 75.6552C75.4811 76.2319 75.4956 77.1816 74.9188 77.7762L42.3185 111.39C41.7417 111.984 40.7921 111.999 40.1974 111.422C39.6027 110.845 39.5882 109.896 40.1649 109.301L72.7653 75.6876C73.3421 75.0929 74.2917 75.0784 74.8864 75.6552Z" fill="#D7AF0C"/>
<path fill-rule="evenodd" clip-rule="evenodd" d="M95.5526 75.6552C94.9579 76.2319 94.9434 77.1816 95.5201 77.7762L128.121 111.39C128.697 111.984 129.647 111.999 130.242 111.422C130.836 110.845 130.851 109.896 130.274 109.301L97.6737 75.6876C97.0969 75.0929 96.1473 75.0784 95.5526 75.6552Z" fill="#D7AF0C"/>
<ellipse cx="85.1857" cy="123.504" rx="25.462" ry="3.50186" fill="#CFCFCF"/>
</svg>
