<svg width="170" height="131" viewBox="0 0 170 131" fill="none" xmlns="http://www.w3.org/2000/svg">
<rect x="54.0288" y="15.6172" width="60.9391" height="97.0695" rx="12" fill="#0060A7"/>
<path d="M54.0288 27.6172C54.0288 20.9898 59.4014 15.6172 66.0288 15.6172H84.1207V112.687H66.0288C59.4014 112.687 54.0288 107.314 54.0288 100.687V27.6172Z" fill="#0077C8"/>
<rect x="58.6133" y="20.1079" width="51.7706" height="88.088" rx="8" fill="#52CAF5"/>
<path d="M58.6133 28.1079C58.6133 23.6896 62.195 20.1079 66.6133 20.1079H84.1777V108.196H66.6133C62.195 108.196 58.6133 104.614 58.6133 100.196V28.1079Z" fill="#80DBFC"/>
<path fill-rule="evenodd" clip-rule="evenodd" d="M99.0098 6.65869C94.5915 6.65869 91.0098 10.2404 91.0098 14.6587V27.2018C91.0098 31.62 94.5915 35.2018 99.0098 35.2018H100.695L103.225 37.7316C103.615 38.1221 104.248 38.1221 104.639 37.7316L106.726 35.644C106.854 35.5168 106.939 35.3638 106.984 35.2018H129.592C134.01 35.2018 137.592 31.6201 137.592 27.2018V14.6587C137.592 10.2404 134.01 6.65869 129.592 6.65869H99.0098Z" fill="white"/>
<path fill-rule="evenodd" clip-rule="evenodd" d="M100.344 5.44922C95.926 5.44922 92.3442 9.03094 92.3442 13.4492V25.9923C92.3442 30.4106 95.926 33.9923 100.344 33.9923H102.029L104.559 36.5221C104.95 36.9126 105.583 36.9126 105.973 36.5221L108.061 34.4345C108.188 34.3073 108.274 34.1543 108.318 33.9923H130.926C135.344 33.9923 138.926 30.4106 138.926 25.9923V13.4492C138.926 9.03094 135.344 5.44922 130.926 5.44922H100.344Z" fill="#FBE122"/>
<circle cx="105.635" cy="19.438" r="3" fill="#BE9A07"/>
<circle cx="115.635" cy="19.438" r="3" fill="#BE9A07"/>
<circle cx="125.635" cy="19.438" r="3" fill="#BE9A07"/>
<ellipse cx="84.922" cy="123.504" rx="25.462" ry="3.50186" fill="#CFCFCF"/>
</svg>
